# xmcd CD database file
# Copyright (C) 1997 Ti Kan
# 
# Track frame offsets:
#     180
#     22528
#     44962
#     67160
#     102863
#     128291
#     144853
#     163988
#     187290
#     205760
# 
# Disc length: 3049 seconds
# 
# Revision: 1
# Processed by: cddbd v1.4b41PL1 Copyright (c) Steve Scherf et al.
# Submitted via: DiscPlay 4.0.3
# 
DISCID=8c0be70a
DTITLE=Eddie Kirkland - Where You Get Your Sugar?
DYEAR=1900
DGENRE=
TTITLE0=See See Rider
TTITLE1=Sugar Mama
TTITLE2=Love Me
TTITLE3=Our Love, So Beautiful
TTITLE4=Lover Bone
TTITLE5=What You Got On Your Mind?
TTITLE6=We Got A Problem
TTITLE7=Being In Love
TTITLE8=Shake What Your Mama Gave You
TTITLE9=Pity On Me
EXTD=
EXTT0=
EXTT1=
EXTT2=
EXTT3=
EXTT4=
EXTT5=
EXTT6=
EXTT7=
EXTT8=
EXTT9=
PLAYORDER=
